<svg width="110" height="130" viewBox="0 0 110 130" fill="none" xmlns="http://www.w3.org/2000/svg">
<path d="M11.7224 92.3922H17.029C18.2129 92.7822 19.2715 93.395 20.2047 94.2307C21.1379 95.2057 21.6323 96.2434 21.688 97.3437V97.6153H16.9246V105.304C16.9246 106.822 16.5067 108.208 15.671 109.461C14.8353 110.631 13.742 111.502 12.3909 112.073C11.3185 111.641 10.2878 110.833 9.29887 109.649C8.26818 108.493 7.60658 107.337 7.31409 106.181C7.55087 108.897 8.74174 111.028 10.8867 112.574C10.4271 112.644 9.97438 112.679 9.52868 112.679C7.50909 112.679 5.77502 111.954 4.32649 110.506C2.87795 109.071 2.15368 107.337 2.15368 105.304V97.0512H7.35588V105.304C7.35588 105.875 7.5648 106.39 7.98265 106.85C8.41442 107.268 8.92977 107.476 9.52868 107.476C10.1555 107.476 10.6778 107.268 11.0956 106.85C11.5135 106.418 11.7224 105.903 11.7224 105.304V92.3922ZM17.7394 92.3922H22.3566C23.833 92.3922 25.1353 92.9424 26.2635 94.0427C27.3499 95.1709 27.8931 96.4732 27.8931 97.9496V104.301H32.0506V109.524H22.7118V98.1167C22.7675 96.3896 22.1964 95.0037 20.9986 93.9591C20.1907 93.2209 19.1043 92.6986 17.7394 92.3922ZM51.6268 97.281V109.524H46.341C45.0875 109.412 43.9941 108.772 43.0609 107.602C42.1277 106.334 41.5915 104.851 41.4522 103.152C41.4104 103.472 41.3895 103.772 41.3895 104.05C41.3895 106.237 42.0372 108.061 43.3325 109.524C41.6333 109.454 40.1708 108.925 38.9451 107.936C37.8866 108.995 36.6052 109.524 35.1009 109.524H31.8626V104.301H34.9129C35.4561 104.329 35.9575 104.287 36.4171 104.175C36.25 103.535 36.1664 102.852 36.1664 102.128V99.7881C36.1664 97.7267 36.8977 95.9857 38.3601 94.565C39.7669 93.1165 41.5079 92.3922 43.5832 92.3922H46.3828L51.6268 97.281ZM45.6098 97.6362H43.5832C43.04 97.6362 42.5177 97.8451 42.0163 98.2629C41.5984 98.6808 41.3895 99.1892 41.3895 99.7881V102.128C41.3895 102.713 41.6054 103.221 42.0372 103.653C42.4829 104.085 42.9982 104.301 43.5832 104.301H46.3828V92.81L45.6098 97.6362ZM64.6218 104.301H68.8003V109.524H64.6218V113.514C64.6218 115.033 64.0716 116.335 62.9713 117.421C61.9128 118.522 60.6105 119.072 59.0644 119.072H53.716V113.849H59.3987V92.3922H64.6218V104.301ZM78.557 109.524H68.3824V104.301H78.557V109.524ZM87.9168 109.524H77.7422V104.301H87.9168V109.524ZM98.4465 84.1815V103.967C98.4465 105.485 97.8964 106.787 96.796 107.873C95.7375 108.974 94.4352 109.524 92.8892 109.524H88.2511C89.5882 109.231 90.6815 108.709 91.5312 107.957C92.7151 106.898 93.2792 105.506 93.2234 103.779V84.1815H98.4465ZM92.2206 104.301V104.593C92.151 105.694 91.6704 106.696 90.779 107.602C89.9016 108.507 88.8221 109.148 87.5407 109.524H87.3109V104.301H92.2206ZM107.89 109.524H102.646V84.1815H107.89V109.524Z" fill="white"/>
<g clip-path="url(#clip0_214_1454)">
<path d="M77.5176 95.7125C76.9742 95.7444 76.1633 96.2436 75.7295 96.5672C75.3579 96.8445 74.9776 97.4382 74.8846 97.9033C74.8139 98.2567 74.6804 99.1517 75.1106 98.4535C75.6332 97.6053 76.1954 96.673 76.8593 95.9286C77.0594 95.7043 76.071 95.8011 75.926 95.8598C75.1988 96.1546 74.6855 97.0064 74.1969 97.589C74.0658 97.7452 73.9703 98.0806 73.8137 98.1981C73.5824 98.3716 73.9313 97.627 74.0495 97.363C74.2503 96.9147 75.061 95.7096 74.9337 96.184C74.6338 97.3018 73.8531 98.2387 73.7351 99.4065C73.6741 100.011 73.6505 100.719 73.7351 101.322C73.8183 101.915 74.0191 102.449 74.138 103.032C74.1486 103.084 74.1576 103.387 74.1576 103.307C74.1576 102.845 74.1576 102.383 74.1576 101.922C74.1576 101.426 74.2934 100.808 73.9611 100.399C73.7352 100.12 73.4811 99.8631 73.2881 99.5588C73.2382 99.48 73.0385 98.9723 73.0278 99.0332C72.8129 100.251 72.8313 101.597 72.8313 102.835C72.8313 103.266 72.99 103.518 73.2734 103.842C73.8853 104.542 74.2734 105.09 75.2776 104.987C76.2774 104.884 76.9272 103.938 77.4095 103.155C77.878 102.393 77.8071 101.393 77.7779 100.531C77.7666 100.197 77.7052 99.8675 77.6944 99.5342C77.6853 99.251 77.4133 99.6688 77.3506 99.7405C76.6995 100.485 75.7673 101.581 75.5822 102.599C75.5113 102.989 75.7679 103.755 75.5527 104.078C75.3894 104.323 75.2195 103.507 75.2186 103.484C75.2014 102.987 75.1574 102.405 75.3169 101.926C75.54 101.257 76.3235 100.453 76.8102 99.9665C77.8222 98.9545 79.0399 98.1592 80.0572 97.1419C80.3449 96.8543 80.9953 96.4458 80.7449 96.0563C80.6049 95.8386 80.6781 95.5457 80.4551 95.3932C80.2413 95.2469 79.5513 95.1748 79.5513 94.9167C79.5513 94.6943 79.0053 95.5961 78.8881 95.7567C78.5938 96.1599 78.3869 96.5429 78.7162 95.8844C78.8435 95.6297 79.1996 94.8459 79.5513 94.8283C79.7919 94.8162 79.9953 94.9782 80.1702 95.1132C80.5894 95.4366 81.1092 95.7062 81.4081 96.1546C81.6229 96.4769 81.8545 96.9699 81.9583 97.3433C82.0292 97.5987 82.3624 98.0074 82.2726 98.2767C82.1776 98.5617 81.6552 98.6589 81.4277 98.7581C80.4994 99.1627 79.5921 99.6634 78.7948 100.291C78.4358 100.573 78.101 100.881 77.8418 101.258C77.6012 101.608 78.2951 100.54 78.5393 100.192C79.046 99.4718 79.6047 98.7375 80.2586 98.1489C80.633 97.812 81.2374 97.9114 81.7126 97.923C82.3415 97.9383 82.7733 98.7651 82.9407 99.2984C83.1811 100.064 82.5812 100.487 82.0368 100.939C81.6971 101.221 81.2544 101.037 80.8776 101.283C80.3791 101.609 79.8919 102.116 80.2291 101.057C80.3417 100.704 80.8573 99.3563 81.3393 99.3377C81.5826 99.3284 81.8543 99.3087 82.0958 99.3377C82.6458 99.4037 80.6704 102.51 80.4551 102.796C80.1395 103.215 79.6639 103.765 79.1976 104.024C78.2596 104.545 77.9378 102.256 78.5393 101.769C78.7938 101.563 79.4244 100.865 79.4579 101.519C79.5156 102.644 79.0622 103.648 78.4558 104.569C78.325 104.768 78.1077 104.997 77.8516 104.997C77.3407 104.997 78.8759 105.038 79.3842 104.987C80.202 104.905 81.6245 104.739 82.1646 104.019C82.8578 103.095 83.5503 102.285 84.0116 101.195C84.3675 100.353 84.9134 99.4714 85.1217 98.5861C85.164 98.4065 85.1483 97.6793 85.3035 98.0802C85.4917 98.5665 85.7906 99.1494 85.9077 99.6472C86.1072 100.495 85.7241 101.366 85.5638 102.167" stroke="white" stroke-width="2.00567" stroke-linecap="round"/>
<mask id="path-3-outside-1_214_1454" maskUnits="userSpaceOnUse" x="69.7833" y="91.2446" width="20" height="20" fill="black">
<rect fill="white" x="69.7833" y="91.2446" width="20" height="20"/>
<path d="M70.7833 101.019C70.7833 96.1732 74.7119 92.2446 79.5581 92.2446C84.4042 92.2446 88.3328 96.1732 88.3328 101.019C88.3328 105.866 84.4042 109.794 79.5581 109.794C74.7119 109.794 70.7833 105.866 70.7833 101.019ZM79.1262 93.5107C79.1338 93.6161 79.1111 93.7215 79.0608 93.8144C79.0105 93.9074 78.9347 93.984 78.8423 94.0353L76.4963 95.3384C76.4484 95.365 76.3972 95.3852 76.344 95.3985L76.1014 95.4593L76.2368 96.4064L78.4274 96.8451C78.5497 96.8691 78.6619 96.9294 78.7495 97.0181L81.4384 95.6731V94.5117C81.4383 94.3623 81.4917 94.2178 81.5888 94.1042C81.6859 93.9907 81.8204 93.9156 81.968 93.8924C81.0541 93.5837 80.0892 93.4545 79.1262 93.5107ZM74.4066 95.5389C73.1856 96.6843 72.3825 98.205 72.1252 99.8593L74.1102 98.8671C74.1247 98.833 74.1423 98.8002 74.1628 98.7693L75.5655 96.6677C75.6493 96.542 75.7758 96.4507 75.9215 96.4108L75.7962 95.5358L75.0252 95.7282C74.9148 95.7566 74.7988 95.754 74.6898 95.7207C74.5807 95.6874 74.483 95.6247 74.4073 95.5396M72.0782 100.234C72.0512 100.491 72.0374 100.752 72.0374 101.016V101.023C72.0374 101.877 72.181 102.7 72.4442 103.466L74.1428 105.354C74.1985 105.286 74.2677 105.232 74.3458 105.193L75.4728 104.629C75.5312 104.6 75.5938 104.58 75.6583 104.571L75.914 101.505C75.7527 101.48 75.6077 101.393 75.5097 101.262L74.1841 99.4939C74.1273 99.4183 74.0883 99.3309 74.07 99.2381L72.0782 100.234ZM74.0111 105.676L72.8065 104.338C73.1656 105.067 73.6404 105.733 74.2123 106.311C74.143 106.169 74.0837 106.021 74.0349 105.871C74.0148 105.808 74.0067 105.742 74.0111 105.676ZM79.5581 108.541C81.1663 108.541 82.6568 108.035 83.8796 107.176L84.0338 105.945C83.9617 105.955 83.8886 105.951 83.8176 105.936L81.9291 105.516C81.7983 105.487 81.6803 105.417 81.5925 105.315L78.5652 106.713C78.5644 106.721 78.5633 106.73 78.5621 106.738L78.3985 107.885C78.3854 107.975 78.3534 108.061 78.307 108.136C78.5822 108.29 78.8705 108.42 79.1594 108.531C79.291 108.537 79.4239 108.541 79.5581 108.541ZM84.3685 105.794L84.2281 106.916C85.5695 105.854 86.5089 104.367 86.8913 102.699L85.9743 103.157C85.9615 103.19 85.946 103.222 85.9279 103.252L84.4914 105.646C84.4583 105.702 84.4168 105.751 84.3685 105.794ZM86.0019 102.793L86.969 102.31C87.0417 101.89 87.0793 101.459 87.0793 101.019C87.0793 99.3729 86.5503 97.8498 85.6528 96.6113C85.637 96.7527 85.5736 96.8844 85.4729 96.9849L84.9182 97.5396C84.8571 97.6007 84.784 97.6485 84.7035 97.68C84.6231 97.7115 84.537 97.726 84.4506 97.7226L84.6932 100.947C84.7574 100.99 84.8133 101.044 84.858 101.107L85.9003 102.566C85.9505 102.635 85.9843 102.713 86.0019 102.793ZM76.2305 101.473L75.9698 104.602C76.0157 104.619 76.0594 104.641 76.1002 104.668L78.2895 106.128C78.3871 106.193 78.4644 106.284 78.5126 106.391L81.4522 105.035C81.4429 104.992 81.4383 104.948 81.4384 104.904V102.384C81.4383 102.293 81.4577 102.204 81.4954 102.122L78.6724 100.475C78.6306 100.506 78.5851 100.531 78.537 100.551L76.2431 101.468L76.2305 101.473ZM78.8742 100.23L81.6966 101.877C81.7386 101.846 81.7843 101.821 81.8326 101.802L84.1153 100.889C84.1967 100.856 84.284 100.841 84.3716 100.845L84.1291 97.6198L81.7423 96.1876C81.6559 96.1357 81.5832 96.0637 81.5305 95.9777L78.9081 97.2889C78.9231 97.3434 78.9313 97.4004 78.9313 97.4594V99.9683C78.9314 100.059 78.9119 100.148 78.8742 100.23Z"/>
</mask>
<path d="M70.7833 101.019C70.7833 96.1732 74.7119 92.2446 79.5581 92.2446C84.4042 92.2446 88.3328 96.1732 88.3328 101.019C88.3328 105.866 84.4042 109.794 79.5581 109.794C74.7119 109.794 70.7833 105.866 70.7833 101.019ZM79.1262 93.5107C79.1338 93.6161 79.1111 93.7215 79.0608 93.8144C79.0105 93.9074 78.9347 93.984 78.8423 94.0353L76.4963 95.3384C76.4484 95.365 76.3972 95.3852 76.344 95.3985L76.1014 95.4593L76.2368 96.4064L78.4274 96.8451C78.5497 96.8691 78.6619 96.9294 78.7495 97.0181L81.4384 95.6731V94.5117C81.4383 94.3623 81.4917 94.2178 81.5888 94.1042C81.6859 93.9907 81.8204 93.9156 81.968 93.8924C81.0541 93.5837 80.0892 93.4545 79.1262 93.5107ZM74.4066 95.5389C73.1856 96.6843 72.3825 98.205 72.1252 99.8593L74.1102 98.8671C74.1247 98.833 74.1423 98.8002 74.1628 98.7693L75.5655 96.6677C75.6493 96.542 75.7758 96.4507 75.9215 96.4108L75.7962 95.5358L75.0252 95.7282C74.9148 95.7566 74.7988 95.754 74.6898 95.7207C74.5807 95.6874 74.483 95.6247 74.4073 95.5396M72.0782 100.234C72.0512 100.491 72.0374 100.752 72.0374 101.016V101.023C72.0374 101.877 72.181 102.7 72.4442 103.466L74.1428 105.354C74.1985 105.286 74.2677 105.232 74.3458 105.193L75.4728 104.629C75.5312 104.6 75.5938 104.58 75.6583 104.571L75.914 101.505C75.7527 101.48 75.6077 101.393 75.5097 101.262L74.1841 99.4939C74.1273 99.4183 74.0883 99.3309 74.07 99.2381L72.0782 100.234ZM74.0111 105.676L72.8065 104.338C73.1656 105.067 73.6404 105.733 74.2123 106.311C74.143 106.169 74.0837 106.021 74.0349 105.871C74.0148 105.808 74.0067 105.742 74.0111 105.676ZM79.5581 108.541C81.1663 108.541 82.6568 108.035 83.8796 107.176L84.0338 105.945C83.9617 105.955 83.8886 105.951 83.8176 105.936L81.9291 105.516C81.7983 105.487 81.6803 105.417 81.5925 105.315L78.5652 106.713C78.5644 106.721 78.5633 106.73 78.5621 106.738L78.3985 107.885C78.3854 107.975 78.3534 108.061 78.307 108.136C78.5822 108.29 78.8705 108.42 79.1594 108.531C79.291 108.537 79.4239 108.541 79.5581 108.541ZM84.3685 105.794L84.2281 106.916C85.5695 105.854 86.5089 104.367 86.8913 102.699L85.9743 103.157C85.9615 103.19 85.946 103.222 85.9279 103.252L84.4914 105.646C84.4583 105.702 84.4168 105.751 84.3685 105.794ZM86.0019 102.793L86.969 102.31C87.0417 101.89 87.0793 101.459 87.0793 101.019C87.0793 99.3729 86.5503 97.8498 85.6528 96.6113C85.637 96.7527 85.5736 96.8844 85.4729 96.9849L84.9182 97.5396C84.8571 97.6007 84.784 97.6485 84.7035 97.68C84.6231 97.7115 84.537 97.726 84.4506 97.7226L84.6932 100.947C84.7574 100.99 84.8133 101.044 84.858 101.107L85.9003 102.566C85.9505 102.635 85.9843 102.713 86.0019 102.793ZM76.2305 101.473L75.9698 104.602C76.0157 104.619 76.0594 104.641 76.1002 104.668L78.2895 106.128C78.3871 106.193 78.4644 106.284 78.5126 106.391L81.4522 105.035C81.4429 104.992 81.4383 104.948 81.4384 104.904V102.384C81.4383 102.293 81.4577 102.204 81.4954 102.122L78.6724 100.475C78.6306 100.506 78.5851 100.531 78.537 100.551L76.2431 101.468L76.2305 101.473ZM78.8742 100.23L81.6966 101.877C81.7386 101.846 81.7843 101.821 81.8326 101.802L84.1153 100.889C84.1967 100.856 84.284 100.841 84.3716 100.845L84.1291 97.6198L81.7423 96.1876C81.6559 96.1357 81.5832 96.0637 81.5305 95.9777L78.9081 97.2889C78.9231 97.3434 78.9313 97.4004 78.9313 97.4594V99.9683C78.9314 100.059 78.9119 100.148 78.8742 100.23Z" fill="#1E1E1E"/>
<path d="M79.1262 93.5107L79.0873 92.8433L78.4109 92.8827L78.4594 93.5586L79.1262 93.5107ZM78.8423 94.0353L79.1669 94.6198L79.1669 94.6198L78.8423 94.0353ZM76.4963 95.3384L76.1717 94.7539L76.1715 94.754L76.4963 95.3384ZM76.344 95.3985L76.1817 94.75L76.1814 94.75L76.344 95.3985ZM76.1014 95.4593L75.9389 94.8108L75.3543 94.9574L75.4396 95.5539L76.1014 95.4593ZM76.2368 96.4064L75.575 96.501L75.6419 96.9691L76.1055 97.0619L76.2368 96.4064ZM78.4274 96.8451L78.2961 97.5007L78.2987 97.5012L78.4274 96.8451ZM78.7495 97.0181L78.2737 97.4878L78.6146 97.8331L79.0486 97.616L78.7495 97.0181ZM81.4384 95.6731L81.7375 96.271L82.1069 96.0862V95.6731H81.4384ZM81.4384 94.5117H82.1069L82.1069 94.5116L81.4384 94.5117ZM81.968 93.8924L82.0716 94.5529L82.1819 93.259L81.968 93.8924ZM72.1252 99.8593L71.4646 99.7565L71.2654 101.036L72.4241 100.457L72.1252 99.8593ZM74.1102 98.8671L74.4091 99.4651L74.6287 99.3553L74.725 99.1295L74.1102 98.8671ZM74.1628 98.7693L73.6067 98.3982L73.6052 98.4004L74.1628 98.7693ZM75.5655 96.6677L76.1216 97.0389L76.1219 97.0384L75.5655 96.6677ZM75.9215 96.4108L76.0982 97.0556L76.667 96.8998L76.5833 96.316L75.9215 96.4108ZM75.7962 95.5358L76.458 95.441L76.3529 94.7078L75.6343 94.8871L75.7962 95.5358ZM75.0252 95.7282L74.8633 95.0795L74.859 95.0807L75.0252 95.7282ZM72.0782 100.234L71.7792 99.6361L71.4515 99.8L71.4133 100.164L72.0782 100.234ZM72.4442 103.466L71.812 103.683L71.8562 103.812L71.9472 103.913L72.4442 103.466ZM74.1428 105.354L73.6458 105.801L74.163 106.376L74.6571 105.781L74.1428 105.354ZM74.3458 105.193L74.6424 105.792L74.6451 105.791L74.3458 105.193ZM75.4728 104.629L75.1758 104.03L75.1735 104.031L75.4728 104.629ZM75.6583 104.571L75.7572 105.232L76.2805 105.154L76.3245 104.626L75.6583 104.571ZM75.914 101.505L76.5802 101.561L76.6319 100.941L76.0177 100.845L75.914 101.505ZM75.5097 101.262L74.9748 101.663L74.9748 101.663L75.5097 101.262ZM74.1841 99.4939L74.719 99.0928L74.7182 99.0917L74.1841 99.4939ZM74.07 99.2381L74.7261 99.1093L74.5568 98.2473L73.7711 98.6402L74.07 99.2381ZM74.0111 105.676L74.6782 105.722L74.6973 105.439L74.5081 105.229L74.0111 105.676ZM72.8065 104.338L73.3035 103.89L72.2067 104.633L72.8065 104.338ZM74.2123 106.311L73.7372 106.782L74.8135 106.019L74.2123 106.311ZM74.0349 105.871L73.3986 106.076L73.3988 106.076L74.0349 105.871ZM83.8796 107.176L84.2642 107.722L84.5062 107.552L84.543 107.259L83.8796 107.176ZM84.0338 105.945L84.6972 106.028L84.8048 105.17L83.9469 105.282L84.0338 105.945ZM83.8176 105.936L83.6725 106.588L83.6734 106.589L83.8176 105.936ZM81.9291 105.516L82.0742 104.863L82.0741 104.863L81.9291 105.516ZM81.5925 105.315L82.0976 104.877L81.7684 104.498L81.3123 104.708L81.5925 105.315ZM78.5652 106.713L78.285 106.106L77.9405 106.265L77.9004 106.642L78.5652 106.713ZM78.5621 106.738L77.9004 106.643L77.9003 106.644L78.5621 106.738ZM78.3985 107.885L79.0601 107.982L79.0604 107.979L78.3985 107.885ZM78.307 108.136L77.738 107.785L77.3721 108.378L77.9802 108.719L78.307 108.136ZM79.1594 108.531L78.921 109.155L79.0208 109.193L79.1276 109.198L79.1594 108.531ZM84.3685 105.794L83.9258 105.293L83.7365 105.46L83.7051 105.711L84.3685 105.794ZM84.2281 106.916L83.5647 106.833L83.3618 108.455L84.6431 107.44L84.2281 106.916ZM86.8913 102.699L87.5429 102.849L87.8595 101.468L86.5924 102.101L86.8913 102.699ZM85.9743 103.157L85.6755 102.559L85.4449 102.674L85.3513 102.915L85.9743 103.157ZM85.9279 103.252L86.5012 103.596L86.5014 103.596L85.9279 103.252ZM84.4914 105.646L83.9181 105.302L83.9176 105.303L84.4914 105.646ZM86.0019 102.793L85.3488 102.936L85.5323 103.775L86.3007 103.391L86.0019 102.793ZM86.969 102.31L87.2678 102.908L87.5701 102.757L87.6277 102.424L86.969 102.31ZM85.6528 96.6113L86.1941 96.219L85.1798 94.8193L84.9883 96.5373L85.6528 96.6113ZM85.4729 96.9849L85.0007 96.5116L85.0001 96.5122L85.4729 96.9849ZM84.9182 97.5396L85.3908 98.0124L85.3909 98.0123L84.9182 97.5396ZM84.4506 97.7226L84.4767 97.0546L83.7277 97.0253L83.7839 97.7727L84.4506 97.7226ZM84.6932 100.947L84.0265 100.997L84.0511 101.324L84.3245 101.505L84.6932 100.947ZM84.858 101.107L84.3135 101.494L84.314 101.495L84.858 101.107ZM85.9003 102.566L85.3563 102.954L85.3597 102.959L85.9003 102.566ZM76.2305 101.473L75.9562 100.864L75.597 101.025L75.5643 101.418L76.2305 101.473ZM75.9698 104.602L75.3035 104.547L75.2614 105.053L75.7378 105.229L75.9698 104.602ZM76.1002 104.668L75.7291 105.225L75.7294 105.225L76.1002 104.668ZM78.2895 106.128L78.6612 105.572L78.6602 105.571L78.2895 106.128ZM78.5126 106.391L77.9029 106.666L78.1798 107.281L78.7927 106.999L78.5126 106.391ZM81.4522 105.035L81.7322 105.642L82.2173 105.418L82.106 104.896L81.4522 105.035ZM81.4384 104.904L82.1069 104.904V104.904H81.4384ZM81.4384 102.384H82.1069L82.1069 102.383L81.4384 102.384ZM81.4954 102.122L82.1031 102.401L82.3557 101.85L81.8322 101.544L81.4954 102.122ZM78.6724 100.475L79.0093 99.8979L78.6313 99.6774L78.278 99.9355L78.6724 100.475ZM78.537 100.551L78.7852 101.171L78.787 101.171L78.537 100.551ZM76.2431 101.468L75.9949 100.847L75.9817 100.852L75.9687 100.858L76.2431 101.468ZM78.8742 100.23L78.2665 99.9517L78.014 100.502L78.5374 100.808L78.8742 100.23ZM81.6966 101.877L81.3597 102.454L81.737 102.674L82.0902 102.417L81.6966 101.877ZM81.8326 101.802L81.5844 101.181L81.5841 101.181L81.8326 101.802ZM84.1153 100.889L84.3635 101.51L84.3643 101.51L84.1153 100.889ZM84.3716 100.845L84.3464 101.513L85.0945 101.541L85.0383 100.794L84.3716 100.845ZM84.1291 97.6198L84.7958 97.5697L84.7698 97.2246L84.4731 97.0465L84.1291 97.6198ZM81.7423 96.1876L81.3982 96.7608L81.3984 96.7609L81.7423 96.1876ZM81.5305 95.9777L82.1006 95.6285L81.7802 95.1054L81.2315 95.3797L81.5305 95.9777ZM78.9081 97.2889L78.6091 96.6909L78.1174 96.9367L78.2636 97.4667L78.9081 97.2889ZM78.9313 99.9683H78.2627L78.2627 99.9691L78.9313 99.9683ZM71.4518 101.019C71.4518 96.5425 75.0811 92.9132 79.5581 92.9132V91.5761C74.3426 91.5761 70.1147 95.804 70.1147 101.019H71.4518ZM79.5581 92.9132C84.035 92.9132 87.6643 96.5425 87.6643 101.019H89.0014C89.0014 95.804 84.7735 91.5761 79.5581 91.5761V92.9132ZM87.6643 101.019C87.6643 105.496 84.035 109.126 79.5581 109.126V110.463C84.7735 110.463 89.0014 106.235 89.0014 101.019H87.6643ZM79.5581 109.126C75.0811 109.126 71.4518 105.496 71.4518 101.019H70.1147C70.1147 106.235 74.3426 110.463 79.5581 110.463V109.126ZM78.4594 93.5586C78.4578 93.5369 78.4625 93.5153 78.4728 93.4962L79.6487 94.1326C79.7597 93.9277 79.8097 93.6953 79.793 93.4629L78.4594 93.5586ZM78.4728 93.4962C78.4831 93.4771 78.4987 93.4614 78.5176 93.4509L79.1669 94.6198C79.3706 94.5066 79.5378 94.3376 79.6487 94.1326L78.4728 93.4962ZM78.5177 93.4509L76.1717 94.7539L76.8209 95.9228L79.1669 94.6198L78.5177 93.4509ZM76.1715 94.754C76.1747 94.7522 76.1781 94.7509 76.1817 94.75L76.5063 96.0471C76.6162 96.0196 76.722 95.9778 76.821 95.9227L76.1715 94.754ZM76.1814 94.75L75.9389 94.8108L76.264 96.1078L76.5065 96.047L76.1814 94.75ZM75.4396 95.5539L75.575 96.501L76.8986 96.3118L76.7632 95.3647L75.4396 95.5539ZM76.1055 97.0619L78.2961 97.5007L78.5587 96.1896L76.3681 95.7508L76.1055 97.0619ZM78.2987 97.5012C78.2892 97.4993 78.2805 97.4947 78.2737 97.4878L79.2253 96.5484C79.0434 96.3641 78.8102 96.2389 78.556 96.1891L78.2987 97.5012ZM79.0486 97.616L81.7375 96.271L81.1393 95.0751L78.4504 96.4202L79.0486 97.616ZM82.1069 95.6731V94.5117H80.7698V95.6731H82.1069ZM82.1069 94.5116C82.1069 94.5216 82.1034 94.5312 82.0969 94.5388L81.0807 93.6697C80.88 93.9043 80.7698 94.203 80.7698 94.5117L82.1069 94.5116ZM82.0969 94.5388C82.0904 94.5463 82.0814 94.5513 82.0716 94.5529L81.8644 93.2319C81.5593 93.2798 81.2814 93.435 81.0807 93.6697L82.0969 94.5388ZM82.1819 93.259C81.1864 92.9227 80.1357 92.7821 79.0873 92.8433L79.1651 94.1781C80.0428 94.1269 80.9217 94.2447 81.754 94.5258L82.1819 93.259ZM73.9492 95.0513C72.6194 96.2987 71.7449 97.9549 71.4646 99.7565L72.7858 99.962C73.0202 98.4551 73.7517 97.0699 74.864 96.0265L73.9492 95.0513ZM72.4241 100.457L74.4091 99.4651L73.8113 98.2691L71.8263 99.2613L72.4241 100.457ZM74.725 99.1295C74.7238 99.1326 74.7222 99.1354 74.7204 99.1382L73.6052 98.4004C73.5625 98.465 73.5257 98.5334 73.4953 98.6046L74.725 99.1295ZM74.7189 99.1405L76.1216 97.0389L75.0095 96.2966L73.6067 98.3982L74.7189 99.1405ZM76.1219 97.0384C76.1163 97.0468 76.1079 97.0529 76.0982 97.0556L75.7449 95.766C75.4436 95.8485 75.1823 96.0371 75.0091 96.2971L76.1219 97.0384ZM76.5833 96.316L76.458 95.441L75.1344 95.6306L75.2597 96.5056L76.5833 96.316ZM75.6343 94.8871L74.8633 95.0796L75.1871 96.3769L75.9581 96.1845L75.6343 94.8871ZM74.859 95.0807C74.8675 95.0785 74.8765 95.0787 74.885 95.0813L74.4946 96.3601C74.721 96.4292 74.9622 96.4347 75.1915 96.3758L74.859 95.0807ZM74.885 95.0813C74.8934 95.0838 74.901 95.0887 74.9068 95.0953L73.9077 95.9838C74.065 96.1608 74.2681 96.291 74.4946 96.3601L74.885 95.0813ZM71.4133 100.164C71.3839 100.445 71.3689 100.729 71.3689 101.016H72.706C72.706 100.776 72.7186 100.538 72.7431 100.304L71.4133 100.164ZM71.3689 101.016V101.023H72.706V101.016H71.3689ZM71.3689 101.023C71.3689 101.953 71.5251 102.848 71.812 103.683L73.0765 103.248C72.8368 102.551 72.706 101.802 72.706 101.023H71.3689ZM71.9472 103.913L73.6458 105.801L74.6398 104.906L72.9412 103.019L71.9472 103.913ZM74.6571 105.781C74.653 105.786 74.6481 105.789 74.6424 105.792L74.0492 104.594C73.8873 104.674 73.7439 104.787 73.6284 104.926L74.6571 105.781ZM74.6451 105.791L75.772 105.227L75.1735 104.031L74.0466 104.595L74.6451 105.791ZM75.7698 105.228C75.7658 105.23 75.7616 105.231 75.7572 105.232L75.5594 103.91C75.426 103.929 75.2966 103.97 75.1758 104.03L75.7698 105.228ZM76.3245 104.626L76.5802 101.561L75.2478 101.45L74.992 104.515L76.3245 104.626ZM76.0177 100.845C76.0284 100.846 76.0381 100.852 76.0446 100.861L74.9748 101.663C75.1773 101.933 75.477 102.113 75.8103 102.166L76.0177 100.845ZM76.0447 100.861L74.719 99.0928L73.6492 99.8949L74.9748 101.663L76.0447 100.861ZM74.7182 99.0917C74.7221 99.0969 74.7248 99.103 74.7261 99.1093L73.414 99.3669C73.4517 99.5588 73.5324 99.7397 73.65 99.896L74.7182 99.0917ZM73.7711 98.6402L71.7792 99.6361L72.3772 100.832L74.369 99.8361L73.7711 98.6402ZM74.5081 105.229L73.3035 103.89L72.3095 104.785L73.5142 106.124L74.5081 105.229ZM72.2067 104.633C72.5977 105.427 73.1145 106.153 73.7372 106.782L74.6875 105.841C74.1662 105.314 73.7336 104.707 73.4063 104.042L72.2067 104.633ZM74.8135 106.019C74.7578 105.904 74.7102 105.786 74.6711 105.665L73.3988 106.076C73.4572 106.257 73.5281 106.433 73.6112 106.604L74.8135 106.019ZM74.6713 105.666C74.6771 105.684 74.6794 105.703 74.6782 105.722L73.3441 105.631C73.3339 105.781 73.3524 105.932 73.3986 106.076L74.6713 105.666ZM79.5581 109.209C81.3085 109.209 82.9325 108.659 84.2642 107.722L83.4951 106.629C82.3811 107.412 81.0241 107.872 79.5581 107.872V109.209ZM84.543 107.259L84.6972 106.028L83.3705 105.862L83.2163 107.092L84.543 107.259ZM83.9469 105.282C83.9518 105.282 83.9569 105.282 83.9617 105.283L83.6734 106.589C83.8203 106.621 83.9717 106.628 84.1208 106.608L83.9469 105.282ZM83.9627 105.283L82.0742 104.863L81.784 106.168L83.6725 106.588L83.9627 105.283ZM82.0741 104.863C82.0832 104.865 82.0914 104.87 82.0976 104.877L81.0875 105.753C81.2692 105.963 81.5135 106.108 81.7842 106.169L82.0741 104.863ZM81.3123 104.708L78.285 106.106L78.8455 107.32L81.8728 105.922L81.3123 104.708ZM77.9004 106.642C77.9004 106.643 77.9004 106.643 77.9004 106.643L79.2239 106.833C79.2262 106.817 79.2283 106.8 79.2301 106.784L77.9004 106.642ZM77.9003 106.644L77.7367 107.791L79.0604 107.979L79.224 106.832L77.9003 106.644ZM77.737 107.789C77.7372 107.787 77.7375 107.786 77.7377 107.785C77.7378 107.785 77.7379 107.785 77.7379 107.785C77.7379 107.785 77.738 107.785 77.738 107.785L78.8761 108.487C78.9686 108.337 79.0333 108.165 79.0601 107.982L77.737 107.789ZM77.9802 108.719C78.2884 108.892 78.607 109.035 78.921 109.155L79.3979 107.906C79.1339 107.805 78.8759 107.688 78.6338 107.553L77.9802 108.719ZM79.1276 109.198C79.2678 109.205 79.4115 109.209 79.5581 109.209V107.872C79.4364 107.872 79.3143 107.869 79.1912 107.863L79.1276 109.198ZM83.7051 105.711L83.5647 106.833L84.8915 106.999L85.0319 105.877L83.7051 105.711ZM84.6431 107.44C86.1037 106.284 87.1266 104.664 87.5429 102.849L86.2396 102.55C85.8912 104.069 85.0354 105.424 83.8132 106.392L84.6431 107.44ZM86.5924 102.101L85.6755 102.559L86.2731 103.755L87.1901 103.297L86.5924 102.101ZM85.3513 102.915C85.3522 102.912 85.3532 102.91 85.3544 102.908L86.5014 103.596C86.5388 103.533 86.5709 103.468 86.5973 103.4L85.3513 102.915ZM85.3546 102.908L83.9181 105.302L85.0646 105.99L86.5012 103.596L85.3546 102.908ZM83.9176 105.303C83.9198 105.299 83.9226 105.296 83.9258 105.293L84.8112 106.295C84.9111 106.207 84.9967 106.104 85.0651 105.989L83.9176 105.303ZM86.3007 103.391L87.2678 102.908L86.6702 101.712L85.703 102.195L86.3007 103.391ZM87.6277 102.424C87.707 101.966 87.7479 101.498 87.7479 101.019H86.4107C86.4107 101.421 86.3764 101.814 86.3102 102.196L87.6277 102.424ZM87.7479 101.019C87.7479 99.2274 87.1716 97.5679 86.1941 96.219L85.1114 97.0037C85.929 98.1318 86.4107 99.5184 86.4107 101.019H87.7479ZM84.9883 96.5373C84.9894 96.5276 84.9938 96.5185 85.0007 96.5116L85.9451 97.4582C86.1534 97.2504 86.2846 96.9778 86.3172 96.6854L84.9883 96.5373ZM85.0001 96.5122L84.4455 97.0668L85.3909 98.0123L85.9456 97.4576L85.0001 96.5122ZM84.4455 97.0668C84.4496 97.0627 84.4545 97.0595 84.4599 97.0574L84.9472 98.3025C85.1135 98.2374 85.2645 98.1387 85.3908 98.0124L84.4455 97.0668ZM84.4599 97.0574C84.4652 97.0553 84.471 97.0543 84.4767 97.0546L84.4245 98.3906C84.603 98.3976 84.7809 98.3676 84.9472 98.3025L84.4599 97.0574ZM83.7839 97.7727L84.0265 100.997L85.3599 100.897L85.1173 97.6725L83.7839 97.7727ZM84.3245 101.505C84.3202 101.502 84.3165 101.499 84.3135 101.494L85.4025 100.719C85.3102 100.589 85.1947 100.477 85.0619 100.39L84.3245 101.505ZM84.314 101.495L85.3563 102.954L86.4444 102.177L85.402 100.718L84.314 101.495ZM85.3597 102.959C85.3526 102.949 85.3499 102.941 85.3488 102.936L86.655 102.65C86.6187 102.485 86.5484 102.32 86.441 102.172L85.3597 102.959ZM75.5643 101.418L75.3035 104.547L76.636 104.658L76.8968 101.529L75.5643 101.418ZM75.7378 105.229C75.7348 105.228 75.7319 105.226 75.7291 105.225L76.4712 104.112C76.387 104.056 76.2966 104.01 76.2017 103.975L75.7378 105.229ZM75.7294 105.225L77.9187 106.684L78.6602 105.571L76.4709 104.112L75.7294 105.225ZM77.9177 106.683C77.9112 106.679 77.9061 106.673 77.9029 106.666L79.1223 106.117C79.0227 105.896 78.863 105.707 78.6612 105.572L77.9177 106.683ZM78.7927 106.999L81.7322 105.642L81.1721 104.428L78.2325 105.784L78.7927 106.999ZM82.106 104.896C82.1066 104.899 82.1069 104.901 82.1069 104.904L80.7698 104.903C80.7697 104.994 80.7792 105.085 80.7983 105.174L82.106 104.896ZM82.1069 104.904V102.384H80.7698V104.904H82.1069ZM82.1069 102.383C82.1069 102.389 82.1056 102.395 82.1031 102.401L80.8877 101.843C80.8098 102.013 80.7696 102.198 80.7698 102.385L82.1069 102.383ZM81.8322 101.544L79.0093 99.8979L78.3356 101.053L81.1586 102.699L81.8322 101.544ZM78.278 99.9355C78.2808 99.9335 78.2838 99.9318 78.2871 99.9305L78.787 101.171C78.8864 101.131 78.9803 101.078 79.0668 101.015L78.278 99.9355ZM78.2889 99.9298L75.9949 100.847L76.4912 102.088L78.7852 101.171L78.2889 99.9298ZM75.9687 100.858L75.9562 100.864L76.5049 102.083L76.5174 102.077L75.9687 100.858ZM78.5374 100.808L81.3597 102.454L82.0335 101.299L79.2111 99.6528L78.5374 100.808ZM82.0902 102.417C82.0874 102.419 82.0843 102.421 82.0811 102.422L81.5841 101.181C81.4843 101.221 81.3899 101.273 81.303 101.336L82.0902 102.417ZM82.0808 102.422L84.3635 101.51L83.8671 100.268L81.5844 101.181L82.0808 102.422ZM84.3643 101.51C84.3586 101.512 84.3525 101.513 84.3464 101.513L84.3969 100.176C84.2156 100.17 84.0348 100.201 83.8663 100.269L84.3643 101.51ZM85.0383 100.794L84.7958 97.5697L83.4624 97.67L83.705 100.895L85.0383 100.794ZM84.4731 97.0465L82.0863 95.6144L81.3984 96.7609L83.7851 98.1931L84.4731 97.0465ZM82.0865 95.6145C82.0922 95.6179 82.0971 95.6227 82.1006 95.6285L80.9604 96.3269C81.0693 96.5047 81.2195 96.6535 81.3982 96.7608L82.0865 95.6145ZM81.2315 95.3797L78.6091 96.6909L79.2071 97.8869L81.8295 96.5756L81.2315 95.3797ZM78.2636 97.4667C78.2632 97.4653 78.2627 97.4626 78.2627 97.4594H79.5998C79.5998 97.3383 79.583 97.2215 79.5526 97.1111L78.2636 97.4667ZM78.2627 97.4594V99.9683H79.5998V97.4594H78.2627ZM78.2627 99.9691C78.2627 99.9631 78.264 99.9571 78.2665 99.9517L79.482 100.509C79.5598 100.339 79.6001 100.154 79.5998 99.9675L78.2627 99.9691Z" fill="white" mask="url(#path-3-outside-1_214_1454)"/>
</g>
<g clip-path="url(#clip1_214_1454)">
<path d="M43.7409 103.306C43.4027 103.268 43.1191 102.551 42.9942 102.294C42.7679 101.828 42.6799 101.432 42.6799 100.923C42.6799 100.659 42.6295 100.316 42.8272 100.103C43.091 99.8189 43.4612 99.4598 43.4756 99.0419C43.4879 98.686 43.4756 98.3273 43.4756 97.9711C43.4756 97.5777 42.8279 98.1769 42.6356 98.31C42.3638 98.4982 42.0026 98.7398 41.7956 98.9928C41.7362 99.0655 41.3753 99.5226 41.4518 99.6216C41.6392 99.8641 43.1878 99.0319 43.3872 98.9339C43.9308 98.6667 44.4646 98.3759 45.0033 98.0988C45.1302 98.0336 45.4676 97.945 45.5044 97.7795C45.5561 97.5468 45.6568 97.2649 45.7353 97.0181C45.9058 96.4822 46.1553 95.7923 46.2167 95.2399C46.2281 95.1373 46.5143 94.6162 46.3886 94.9304C46.3553 95.0136 46.2167 94.562 46.2167 94.5079C46.2167 94.3596 46.3363 94.2894 46.3837 94.1592C46.4458 93.9884 46.3935 94.5369 46.3935 94.5964C46.3935 95.0918 46.4819 95.5675 46.4819 96.0651C46.4819 96.6161 46.524 97.188 46.4623 97.7353C46.4411 97.9231 46.5151 98.4208 46.3739 98.2953C46.2183 98.157 46.216 97.8384 46.197 97.6567C46.0907 96.641 46.1283 95.6167 46.1283 94.5964C46.1283 94.2098 46.2698 93.9325 46.3051 93.5795C46.4283 92.3474 46.2167 96.055 46.2167 97.2932C46.2167 97.7058 46.2167 98.1184 46.2167 98.5311C46.2167 98.6029 46.2167 98.8837 46.2167 98.6048C46.2167 97.9694 46.2167 97.3341 46.2167 96.6988C46.2167 95.9898 46.2167 95.2808 46.2167 94.5718C46.2167 94.1891 46.3935 93.9113 46.3935 93.5353C46.3935 92.1956 46.3051 96.2138 46.3051 97.5535C46.3051 97.9383 46.3051 98.3231 46.3051 98.7079C46.3051 99.5201 46.3051 97.0836 46.3051 96.2714C46.3051 95.492 46.3051 94.7126 46.3051 93.9332C46.3051 93.483 46.3051 93.1501 46.3051 93.9529C46.3051 95.2661 46.3051 96.5793 46.3051 97.8925C46.3051 98.6048 46.3051 99.317 46.3051 100.029C46.3051 100.475 46.4899 100.691 46.6146 101.09C46.8887 101.968 44.0217 101.032 43.6525 100.81C43.1385 100.502 44.035 99.3545 44.2567 99.1255C44.2982 99.0826 44.5399 98.7177 44.5956 98.7177C44.9144 98.7177 45.1889 99.2229 45.357 99.4349C46.4981 100.874 42.9803 101.763 42.4342 102.422C42.3092 102.573 41.8686 103.481 42.0511 103.247C42.1617 103.105 42.5216 102.354 42.6602 102.323C42.7626 102.301 42.6162 102.529 42.5816 102.628C42.4873 102.897 42.4061 103.169 42.3262 103.443C42.0636 104.344 41.9725 105.025 41.9725 105.958C41.9725 106.453 42.3959 106.766 42.7192 107.108C43.0217 107.428 43.0818 107.795 43.3381 108.125C43.3932 108.196 43.5178 108.243 43.5542 108.306C43.558 108.313 43.634 108.564 43.6525 108.523C43.8235 108.138 43.7477 107.602 43.8784 107.186C44.0222 106.73 44.1168 106.282 44.3549 105.865C44.8807 104.945 45.1465 103.745 45.4897 102.746C45.5889 102.457 46.0091 101.711 45.5388 102.323C45.085 102.914 44.5541 103.416 44.0651 103.974C43.7545 104.328 43.5795 104.812 43.2988 105.202C43.2547 105.263 42.9975 105.68 43.0728 105.6C43.4965 105.15 43.9189 104.697 44.35 104.254C44.7018 103.892 44.7834 103.81 45.2244 103.728C45.6652 103.646 46.117 103.703 46.5507 103.591C46.7721 103.533 46.6562 104.09 46.5704 103.954C46.2842 103.5 46.3935 102.682 46.3935 102.245" stroke="white" stroke-width="2.00567" stroke-linecap="round"/>
<path d="M52.7598 108.523C51.9229 109.205 51.1481 109.853 50.4363 110.674C50.1301 111.028 49.8833 111.55 49.4883 111.814C49.3956 111.876 49.6943 111.724 49.783 111.657C50.5526 111.072 51.2719 110.405 52.0181 109.79C52.7022 109.226 53.3608 108.638 54.0026 108.027C54.2416 107.799 54.5655 107.54 54.6854 107.216C54.7103 107.149 54.5385 107.235 54.4791 107.275C53.5072 107.926 52.5439 108.592 51.576 109.25C50.4879 109.989 49.5237 110.861 48.6041 111.794C48.4578 111.943 48.3093 112.089 48.162 112.236C48.1207 112.278 48.689 111.578 48.6974 111.568C50.0832 109.898 51.8819 108.706 53.4574 107.236C53.6693 107.038 54.2913 106.448 54.037 106.587C53.414 106.928 52.8585 107.435 52.2735 107.835C50.3667 109.138 48.3487 110.354 46.315 111.45C46.0155 111.612 45.7271 111.8 45.4307 111.961C45.0797 112.153 45.9909 111.385 46.315 111.151C47.8107 110.069 49.1927 108.906 50.569 107.678C51.1852 107.128 51.9003 106.699 52.4356 106.057C52.7077 105.73 52.6631 105.146 52.7795 104.75C52.9254 104.253 53.2019 103.788 53.2019 103.267C53.2019 103.202 53.2183 103.122 53.2019 103.237C53.1244 103.78 52.8123 104.33 52.5928 104.824C51.7644 106.688 50.4401 108.002 48.6925 109.004C48.1302 109.327 47.2496 109.92 46.5949 110.021C45.8735 110.132 45.1739 110.294 44.4483 110.375C44.2171 110.4 43.9733 110.379 43.7409 110.379C43.1513 110.379 44.9443 110.302 45.4799 110.055C47.0964 109.311 48.2572 108.17 49.6111 107.078C50.2906 106.53 50.9667 105.854 51.6988 105.384C52.1776 105.076 52.7653 104.046 52.9268 103.542C53.0319 103.213 52.9444 102.84 53.0644 102.53C53.162 102.277 53.2903 102.17 53.2903 101.891" stroke="#2A2A2A" stroke-width="2.00567" stroke-linecap="round"/>
<mask id="path-7-outside-2_214_1454" maskUnits="userSpaceOnUse" x="34.3499" y="91.2446" width="20" height="20" fill="black">
<rect fill="white" x="34.3499" y="91.2446" width="20" height="20"/>
<path d="M35.3499 101.019C35.3499 96.1732 39.2785 92.2446 44.1246 92.2446C48.9708 92.2446 52.8994 96.1732 52.8994 101.019C52.8994 105.866 48.9708 109.794 44.1246 109.794C39.2785 109.794 35.3499 105.866 35.3499 101.019ZM43.6928 93.5107C43.7004 93.6161 43.6777 93.7215 43.6274 93.8144C43.5771 93.9074 43.5013 93.984 43.4089 94.0353L41.0629 95.3384C41.0149 95.365 40.9637 95.3852 40.9106 95.3985L40.668 95.4593L40.8034 96.4064L42.9939 96.8451C43.1163 96.8691 43.2285 96.9294 43.3161 97.0181L46.005 95.6731V94.5117C46.0049 94.3623 46.0583 94.2178 46.1554 94.1042C46.2525 93.9907 46.387 93.9156 46.5346 93.8924C45.6206 93.5837 44.6558 93.4545 43.6928 93.5107ZM38.9732 95.5389C37.7522 96.6843 36.9491 98.205 36.6918 99.8593L38.6768 98.8671C38.6913 98.833 38.7089 98.8002 38.7294 98.7693L40.1321 96.6677C40.2159 96.542 40.3423 96.4507 40.4881 96.4108L40.3628 95.5358L39.5918 95.7282C39.4814 95.7566 39.3654 95.754 39.2563 95.7207C39.1473 95.6874 39.0496 95.6247 38.9738 95.5396M36.6448 100.234C36.6178 100.491 36.604 100.752 36.604 101.016V101.023C36.604 101.877 36.7476 102.7 37.0108 103.466L38.7093 105.354C38.7651 105.286 38.8343 105.232 38.9124 105.193L40.0394 104.629C40.0978 104.6 40.1604 104.58 40.2249 104.571L40.4806 101.505C40.3193 101.48 40.1743 101.393 40.0763 101.262L38.7507 99.4939C38.6939 99.4183 38.6548 99.3309 38.6366 99.2381L36.6448 100.234ZM38.5777 105.676L37.3731 104.338C37.7322 105.067 38.207 105.733 38.7789 106.311C38.7096 106.169 38.6503 106.021 38.6015 105.871C38.5813 105.808 38.5733 105.742 38.5777 105.676ZM44.1246 108.541C45.7329 108.541 47.2234 108.035 48.4462 107.176L48.6004 105.945C48.5283 105.955 48.4552 105.951 48.3842 105.936L46.4957 105.516C46.3649 105.487 46.2469 105.417 46.1591 105.315L43.1318 106.713C43.1309 106.721 43.1299 106.73 43.1287 106.738L42.9651 107.885C42.952 107.975 42.92 108.061 42.8736 108.136C43.1488 108.29 43.4371 108.42 43.726 108.531C43.8576 108.537 43.9905 108.541 44.1246 108.541ZM48.9351 105.794L48.7947 106.916C50.1361 105.854 51.0755 104.367 51.4579 102.699L50.5409 103.157C50.5281 103.19 50.5126 103.222 50.4945 103.252L49.058 105.646C49.0249 105.702 48.9834 105.751 48.9351 105.794ZM50.5685 102.793L51.5356 102.31C51.6083 101.89 51.6459 101.459 51.6459 101.019C51.6459 99.3729 51.1169 97.8498 50.2194 96.6113C50.2036 96.7527 50.1402 96.8844 50.0395 96.9849L49.4848 97.5396C49.4237 97.6007 49.3506 97.6485 49.2701 97.68C49.1897 97.7115 49.1036 97.726 49.0172 97.7226L49.2598 100.947C49.324 100.99 49.3799 101.044 49.4246 101.107L50.4669 102.566C50.5171 102.635 50.5509 102.713 50.5685 102.793ZM40.7971 101.473L40.5364 104.602C40.5823 104.619 40.626 104.641 40.6667 104.668L42.8561 106.128C42.9537 106.193 43.031 106.284 43.0792 106.391L46.0187 105.035C46.0095 104.992 46.0049 104.948 46.005 104.904V102.384C46.0048 102.293 46.0243 102.204 46.062 102.122L43.239 100.475C43.1972 100.506 43.1517 100.531 43.1036 100.551L40.8097 101.468L40.7971 101.473ZM43.4408 100.23L46.2632 101.877C46.3052 101.846 46.3509 101.821 46.3992 101.802L48.6819 100.889C48.7633 100.856 48.8506 100.841 48.9382 100.845L48.6957 97.6198L46.3089 96.1876C46.2225 96.1357 46.1498 96.0637 46.0971 95.9777L43.4747 97.2889C43.4897 97.3434 43.4979 97.4004 43.4979 97.4594V99.9683C43.498 100.059 43.4785 100.148 43.4408 100.23Z"/>
</mask>
<path d="M35.3499 101.019C35.3499 96.1732 39.2785 92.2446 44.1246 92.2446C48.9708 92.2446 52.8994 96.1732 52.8994 101.019C52.8994 105.866 48.9708 109.794 44.1246 109.794C39.2785 109.794 35.3499 105.866 35.3499 101.019ZM43.6928 93.5107C43.7004 93.6161 43.6777 93.7215 43.6274 93.8144C43.5771 93.9074 43.5013 93.984 43.4089 94.0353L41.0629 95.3384C41.0149 95.365 40.9637 95.3852 40.9106 95.3985L40.668 95.4593L40.8034 96.4064L42.9939 96.8451C43.1163 96.8691 43.2285 96.9294 43.3161 97.0181L46.005 95.6731V94.5117C46.0049 94.3623 46.0583 94.2178 46.1554 94.1042C46.2525 93.9907 46.387 93.9156 46.5346 93.8924C45.6206 93.5837 44.6558 93.4545 43.6928 93.5107ZM38.9732 95.5389C37.7522 96.6843 36.9491 98.205 36.6918 99.8593L38.6768 98.8671C38.6913 98.833 38.7089 98.8002 38.7294 98.7693L40.1321 96.6677C40.2159 96.542 40.3423 96.4507 40.4881 96.4108L40.3628 95.5358L39.5918 95.7282C39.4814 95.7566 39.3654 95.754 39.2563 95.7207C39.1473 95.6874 39.0496 95.6247 38.9738 95.5396M36.6448 100.234C36.6178 100.491 36.604 100.752 36.604 101.016V101.023C36.604 101.877 36.7476 102.7 37.0108 103.466L38.7093 105.354C38.7651 105.286 38.8343 105.232 38.9124 105.193L40.0394 104.629C40.0978 104.6 40.1604 104.58 40.2249 104.571L40.4806 101.505C40.3193 101.48 40.1743 101.393 40.0763 101.262L38.7507 99.4939C38.6939 99.4183 38.6548 99.3309 38.6366 99.2381L36.6448 100.234ZM38.5777 105.676L37.3731 104.338C37.7322 105.067 38.207 105.733 38.7789 106.311C38.7096 106.169 38.6503 106.021 38.6015 105.871C38.5813 105.808 38.5733 105.742 38.5777 105.676ZM44.1246 108.541C45.7329 108.541 47.2234 108.035 48.4462 107.176L48.6004 105.945C48.5283 105.955 48.4552 105.951 48.3842 105.936L46.4957 105.516C46.3649 105.487 46.2469 105.417 46.1591 105.315L43.1318 106.713C43.1309 106.721 43.1299 106.73 43.1287 106.738L42.9651 107.885C42.952 107.975 42.92 108.061 42.8736 108.136C43.1488 108.29 43.4371 108.42 43.726 108.531C43.8576 108.537 43.9905 108.541 44.1246 108.541ZM48.9351 105.794L48.7947 106.916C50.1361 105.854 51.0755 104.367 51.4579 102.699L50.5409 103.157C50.5281 103.19 50.5126 103.222 50.4945 103.252L49.058 105.646C49.0249 105.702 48.9834 105.751 48.9351 105.794ZM50.5685 102.793L51.5356 102.31C51.6083 101.89 51.6459 101.459 51.6459 101.019C51.6459 99.3729 51.1169 97.8498 50.2194 96.6113C50.2036 96.7527 50.1402 96.8844 50.0395 96.9849L49.4848 97.5396C49.4237 97.6007 49.3506 97.6485 49.2701 97.68C49.1897 97.7115 49.1036 97.726 49.0172 97.7226L49.2598 100.947C49.324 100.99 49.3799 101.044 49.4246 101.107L50.4669 102.566C50.5171 102.635 50.5509 102.713 50.5685 102.793ZM40.7971 101.473L40.5364 104.602C40.5823 104.619 40.626 104.641 40.6667 104.668L42.8561 106.128C42.9537 106.193 43.031 106.284 43.0792 106.391L46.0187 105.035C46.0095 104.992 46.0049 104.948 46.005 104.904V102.384C46.0048 102.293 46.0243 102.204 46.062 102.122L43.239 100.475C43.1972 100.506 43.1517 100.531 43.1036 100.551L40.8097 101.468L40.7971 101.473ZM43.4408 100.23L46.2632 101.877C46.3052 101.846 46.3509 101.821 46.3992 101.802L48.6819 100.889C48.7633 100.856 48.8506 100.841 48.9382 100.845L48.6957 97.6198L46.3089 96.1876C46.2225 96.1357 46.1498 96.0637 46.0971 95.9777L43.4747 97.2889C43.4897 97.3434 43.4979 97.4004 43.4979 97.4594V99.9683C43.498 100.059 43.4785 100.148 43.4408 100.23Z" fill="#1E1E1E"/>
<path d="M43.6928 93.5107L43.6539 92.8433L42.9775 92.8827L43.026 93.5586L43.6928 93.5107ZM43.4089 94.0353L43.7335 94.6198L43.7335 94.6198L43.4089 94.0353ZM41.0629 95.3384L40.7382 94.7539L40.7381 94.754L41.0629 95.3384ZM40.9106 95.3985L40.7483 94.75L40.748 94.75L40.9106 95.3985ZM40.668 95.4593L40.5055 94.8108L39.9209 94.9574L40.0062 95.5539L40.668 95.4593ZM40.8034 96.4064L40.1416 96.501L40.2085 96.9691L40.6721 97.0619L40.8034 96.4064ZM42.9939 96.8451L42.8627 97.5007L42.8653 97.5012L42.9939 96.8451ZM43.3161 97.0181L42.8403 97.4878L43.1812 97.8331L43.6152 97.616L43.3161 97.0181ZM46.005 95.6731L46.3041 96.271L46.6735 96.0862V95.6731H46.005ZM46.005 94.5117H46.6735L46.6735 94.5116L46.005 94.5117ZM46.5346 93.8924L46.6382 94.5529L46.7485 93.259L46.5346 93.8924ZM36.6918 99.8593L36.0312 99.7565L35.832 101.036L36.9907 100.457L36.6918 99.8593ZM38.6768 98.8671L38.9757 99.4651L39.1953 99.3553L39.2916 99.1295L38.6768 98.8671ZM38.7294 98.7693L38.1733 98.3982L38.1718 98.4004L38.7294 98.7693ZM40.1321 96.6677L40.6882 97.0389L40.6885 97.0384L40.1321 96.6677ZM40.4881 96.4108L40.6648 97.0556L41.2336 96.8998L41.1499 96.316L40.4881 96.4108ZM40.3628 95.5358L41.0246 95.441L40.9195 94.7078L40.2009 94.8871L40.3628 95.5358ZM39.5918 95.7282L39.4299 95.0795L39.4256 95.0807L39.5918 95.7282ZM36.6448 100.234L36.3458 99.6361L36.0181 99.8L35.9799 100.164L36.6448 100.234ZM37.0108 103.466L36.3785 103.683L36.4228 103.812L36.5138 103.913L37.0108 103.466ZM38.7093 105.354L38.2123 105.801L38.7296 106.376L39.2236 105.781L38.7093 105.354ZM38.9124 105.193L39.209 105.792L39.2117 105.791L38.9124 105.193ZM40.0394 104.629L39.7423 104.03L39.7401 104.031L40.0394 104.629ZM40.2249 104.571L40.3238 105.232L40.8471 105.154L40.8911 104.626L40.2249 104.571ZM40.4806 101.505L41.1468 101.561L41.1985 100.941L40.5843 100.845L40.4806 101.505ZM40.0763 101.262L39.5414 101.663L39.5414 101.663L40.0763 101.262ZM38.7507 99.4939L39.2856 99.0928L39.2848 99.0917L38.7507 99.4939ZM38.6366 99.2381L39.2927 99.1093L39.1234 98.2473L38.3377 98.6402L38.6366 99.2381ZM38.5777 105.676L39.2447 105.722L39.2639 105.439L39.0747 105.229L38.5777 105.676ZM37.3731 104.338L37.87 103.89L36.7733 104.633L37.3731 104.338ZM38.7789 106.311L38.3038 106.782L39.3801 106.019L38.7789 106.311ZM38.6015 105.871L37.9652 106.076L37.9654 106.076L38.6015 105.871ZM48.4462 107.176L48.8308 107.722L49.0728 107.552L49.1096 107.259L48.4462 107.176ZM48.6004 105.945L49.2638 106.028L49.3714 105.17L48.5135 105.282L48.6004 105.945ZM48.3842 105.936L48.2391 106.588L48.24 106.589L48.3842 105.936ZM46.4957 105.516L46.6408 104.863L46.6407 104.863L46.4957 105.516ZM46.1591 105.315L46.6642 104.877L46.335 104.498L45.8789 104.708L46.1591 105.315ZM43.1318 106.713L42.8516 106.106L42.5071 106.265L42.467 106.642L43.1318 106.713ZM43.1287 106.738L42.467 106.643L42.4668 106.644L43.1287 106.738ZM42.9651 107.885L43.6267 107.982L43.627 107.979L42.9651 107.885ZM42.8736 108.136L42.3046 107.785L41.9386 108.378L42.5468 108.719L42.8736 108.136ZM43.726 108.531L43.4876 109.155L43.5874 109.193L43.6942 109.198L43.726 108.531ZM48.9351 105.794L48.4924 105.293L48.3031 105.46L48.2717 105.711L48.9351 105.794ZM48.7947 106.916L48.1313 106.833L47.9284 108.455L49.2097 107.44L48.7947 106.916ZM51.4579 102.699L52.1095 102.849L52.426 101.468L51.159 102.101L51.4579 102.699ZM50.5409 103.157L50.2421 102.559L50.0115 102.674L49.9179 102.915L50.5409 103.157ZM50.4945 103.252L51.0678 103.596L51.068 103.596L50.4945 103.252ZM49.058 105.646L48.4847 105.302L48.4842 105.303L49.058 105.646ZM50.5685 102.793L49.9154 102.936L50.0989 103.775L50.8673 103.391L50.5685 102.793ZM51.5356 102.31L51.8344 102.908L52.1367 102.757L52.1943 102.424L51.5356 102.31ZM50.2194 96.6113L50.7607 96.219L49.7463 94.8193L49.5549 96.5373L50.2194 96.6113ZM50.0395 96.9849L49.5673 96.5116L49.5667 96.5122L50.0395 96.9849ZM49.4848 97.5396L49.9574 98.0124L49.9575 98.0123L49.4848 97.5396ZM49.0172 97.7226L49.0433 97.0546L48.2943 97.0253L48.3505 97.7727L49.0172 97.7226ZM49.2598 100.947L48.5931 100.997L48.6177 101.324L48.8911 101.505L49.2598 100.947ZM49.4246 101.107L48.8801 101.494L48.8806 101.495L49.4246 101.107ZM50.4669 102.566L49.9229 102.954L49.9262 102.959L50.4669 102.566ZM40.7971 101.473L40.5227 100.864L40.1636 101.025L40.1309 101.418L40.7971 101.473ZM40.5364 104.602L39.8701 104.547L39.8279 105.053L40.3044 105.229L40.5364 104.602ZM40.6667 104.668L40.2957 105.225L40.296 105.225L40.6667 104.668ZM42.8561 106.128L43.2278 105.572L43.2268 105.571L42.8561 106.128ZM43.0792 106.391L42.4695 106.666L42.7463 107.281L43.3593 106.999L43.0792 106.391ZM46.0187 105.035L46.2988 105.642L46.7839 105.418L46.6726 104.896L46.0187 105.035ZM46.005 104.904L46.6735 104.904V104.904H46.005ZM46.005 102.384H46.6735L46.6735 102.383L46.005 102.384ZM46.062 102.122L46.6697 102.401L46.9223 101.85L46.3988 101.544L46.062 102.122ZM43.239 100.475L43.5758 99.8979L43.1979 99.6774L42.8446 99.9355L43.239 100.475ZM43.1036 100.551L43.3518 101.171L43.3536 101.171L43.1036 100.551ZM40.8097 101.468L40.5615 100.847L40.5483 100.852L40.5353 100.858L40.8097 101.468ZM43.4408 100.23L42.8331 99.9517L42.5806 100.502L43.1039 100.808L43.4408 100.23ZM46.2632 101.877L45.9263 102.454L46.3036 102.674L46.6568 102.417L46.2632 101.877ZM46.3992 101.802L46.151 101.181L46.1507 101.181L46.3992 101.802ZM48.6819 100.889L48.9301 101.51L48.9309 101.51L48.6819 100.889ZM48.9382 100.845L48.9129 101.513L49.6611 101.541L49.6049 100.794L48.9382 100.845ZM48.6957 97.6198L49.3623 97.5697L49.3364 97.2246L49.0397 97.0465L48.6957 97.6198ZM46.3089 96.1876L45.9648 96.7608L45.9649 96.7609L46.3089 96.1876ZM46.0971 95.9777L46.6672 95.6285L46.3468 95.1054L45.7981 95.3797L46.0971 95.9777ZM43.4747 97.2889L43.1757 96.6909L42.684 96.9367L42.8302 97.4667L43.4747 97.2889ZM43.4979 99.9683H42.8293L42.8293 99.9691L43.4979 99.9683ZM36.0184 101.019C36.0184 96.5425 39.6477 92.9132 44.1246 92.9132V91.5761C38.9092 91.5761 34.6813 95.804 34.6813 101.019H36.0184ZM44.1246 92.9132C48.6016 92.9132 52.2309 96.5425 52.2309 101.019H53.568C53.568 95.804 49.3401 91.5761 44.1246 91.5761V92.9132ZM52.2309 101.019C52.2309 105.496 48.6016 109.126 44.1246 109.126V110.463C49.3401 110.463 53.568 106.235 53.568 101.019H52.2309ZM44.1246 109.126C39.6477 109.126 36.0184 105.496 36.0184 101.019H34.6813C34.6813 106.235 38.9092 110.463 44.1246 110.463V109.126ZM43.026 93.5586C43.0244 93.5369 43.0291 93.5153 43.0394 93.4962L44.2153 94.1326C44.3262 93.9277 44.3763 93.6953 44.3596 93.4629L43.026 93.5586ZM43.0394 93.4962C43.0497 93.4771 43.0653 93.4614 43.0842 93.4509L43.7335 94.6198C43.9372 94.5066 44.1044 94.3376 44.2153 94.1326L43.0394 93.4962ZM43.0842 93.4509L40.7382 94.7539L41.3875 95.9228L43.7335 94.6198L43.0842 93.4509ZM40.7381 94.754C40.7413 94.7522 40.7447 94.7509 40.7483 94.75L41.0729 96.0471C41.1828 96.0196 41.2886 95.9778 41.3876 95.9227L40.7381 94.754ZM40.748 94.75L40.5055 94.8108L40.8305 96.1078L41.0731 96.047L40.748 94.75ZM40.0062 95.5539L40.1416 96.501L41.4652 96.3118L41.3298 95.3647L40.0062 95.5539ZM40.6721 97.0619L42.8627 97.5007L43.1252 96.1896L40.9347 95.7508L40.6721 97.0619ZM42.8653 97.5012C42.8558 97.4993 42.8471 97.4947 42.8403 97.4878L43.7919 96.5484C43.61 96.3641 43.3768 96.2389 43.1226 96.1891L42.8653 97.5012ZM43.6152 97.616L46.3041 96.271L45.7059 95.0751L43.017 96.4202L43.6152 97.616ZM46.6735 95.6731V94.5117H45.3364V95.6731H46.6735ZM46.6735 94.5116C46.6735 94.5216 46.67 94.5312 46.6635 94.5388L45.6473 93.6697C45.4466 93.9043 45.3364 94.203 45.3364 94.5117L46.6735 94.5116ZM46.6635 94.5388C46.657 94.5463 46.648 94.5513 46.6382 94.5529L46.4309 93.2319C46.1259 93.2798 45.848 93.435 45.6473 93.6697L46.6635 94.5388ZM46.7485 93.259C45.753 92.9227 44.7023 92.7821 43.6539 92.8433L43.7317 94.1781C44.6093 94.1269 45.4883 94.2447 46.3206 94.5258L46.7485 93.259ZM38.5158 95.0513C37.186 96.2987 36.3115 97.9549 36.0312 99.7565L37.3524 99.962C37.5868 98.4551 38.3183 97.0699 39.4306 96.0265L38.5158 95.0513ZM36.9907 100.457L38.9757 99.4651L38.3778 98.2691L36.3929 99.2613L36.9907 100.457ZM39.2916 99.1295C39.2903 99.1326 39.2888 99.1354 39.287 99.1382L38.1718 98.4004C38.1291 98.465 38.0923 98.5334 38.0619 98.6046L39.2916 99.1295ZM39.2855 99.1405L40.6882 97.0389L39.576 96.2966L38.1733 98.3982L39.2855 99.1405ZM40.6885 97.0384C40.6829 97.0468 40.6745 97.0529 40.6648 97.0556L40.3115 95.766C40.0102 95.8485 39.7489 96.0371 39.5757 96.2971L40.6885 97.0384ZM41.1499 96.316L41.0246 95.441L39.701 95.6306L39.8263 96.5056L41.1499 96.316ZM40.2009 94.8871L39.4299 95.0796L39.7537 96.3769L40.5247 96.1845L40.2009 94.8871ZM39.4256 95.0807C39.4341 95.0785 39.4431 95.0787 39.4515 95.0813L39.0611 96.3601C39.2876 96.4292 39.5288 96.4347 39.7581 96.3758L39.4256 95.0807ZM39.4515 95.0813C39.46 95.0838 39.4676 95.0887 39.4734 95.0953L38.4743 95.9838C38.6316 96.1608 38.8347 96.291 39.0611 96.3601L39.4515 95.0813ZM35.9799 100.164C35.9505 100.445 35.9355 100.729 35.9355 101.016H37.2726C37.2726 100.776 37.2852 100.538 37.3097 100.304L35.9799 100.164ZM35.9355 101.016V101.023H37.2726V101.016H35.9355ZM35.9355 101.023C35.9355 101.953 36.0917 102.848 36.3785 103.683L37.643 103.248C37.4034 102.551 37.2726 101.802 37.2726 101.023H35.9355ZM36.5138 103.913L38.2123 105.801L39.2063 104.906L37.5078 103.019L36.5138 103.913ZM39.2236 105.781C39.2196 105.786 39.2147 105.789 39.209 105.792L38.6158 104.594C38.4538 104.674 38.3105 104.787 38.195 104.926L39.2236 105.781ZM39.2117 105.791L40.3386 105.227L39.7401 104.031L38.6132 104.595L39.2117 105.791ZM40.3364 105.228C40.3324 105.23 40.3282 105.231 40.3238 105.232L40.126 103.91C39.9926 103.929 39.8632 103.97 39.7423 104.03L40.3364 105.228ZM40.8911 104.626L41.1468 101.561L39.8144 101.45L39.5586 104.515L40.8911 104.626ZM40.5843 100.845C40.595 100.846 40.6047 100.852 40.6112 100.861L39.5414 101.663C39.7438 101.933 40.0436 102.113 40.3769 102.166L40.5843 100.845ZM40.6112 100.861L39.2856 99.0928L38.2158 99.8949L39.5414 101.663L40.6112 100.861ZM39.2848 99.0917C39.2887 99.0969 39.2914 99.103 39.2927 99.1093L37.9806 99.3669C38.0183 99.5588 38.099 99.7397 38.2166 99.896L39.2848 99.0917ZM38.3377 98.6402L36.3458 99.6361L36.9437 100.832L38.9356 99.8361L38.3377 98.6402ZM39.0747 105.229L37.87 103.89L36.8761 104.785L38.0807 106.124L39.0747 105.229ZM36.7733 104.633C37.1643 105.427 37.6811 106.153 38.3038 106.782L39.2541 105.841C38.7328 105.314 38.3002 104.707 37.9729 104.042L36.7733 104.633ZM39.3801 106.019C39.3244 105.904 39.2768 105.786 39.2377 105.665L37.9654 106.076C38.0237 106.257 38.0947 106.433 38.1777 106.604L39.3801 106.019ZM39.2379 105.666C39.2437 105.684 39.246 105.703 39.2447 105.722L37.9107 105.631C37.9005 105.781 37.919 105.932 37.9652 106.076L39.2379 105.666ZM44.1246 109.209C45.8751 109.209 47.4991 108.659 48.8308 107.722L48.0616 106.629C46.9477 107.412 45.5907 107.872 44.1246 107.872V109.209ZM49.1096 107.259L49.2638 106.028L47.937 105.862L47.7829 107.092L49.1096 107.259ZM48.5135 105.282C48.5184 105.282 48.5234 105.282 48.5283 105.283L48.24 106.589C48.3869 106.621 48.5383 106.628 48.6874 106.608L48.5135 105.282ZM48.5293 105.283L46.6408 104.863L46.3506 106.168L48.2391 106.588L48.5293 105.283ZM46.6407 104.863C46.6498 104.865 46.658 104.87 46.6642 104.877L45.6541 105.753C45.8358 105.963 46.0801 106.108 46.3508 106.169L46.6407 104.863ZM45.8789 104.708L42.8516 106.106L43.4121 107.32L46.4394 105.922L45.8789 104.708ZM42.467 106.642C42.467 106.643 42.467 106.643 42.467 106.643L43.7904 106.833C43.7928 106.817 43.7949 106.8 43.7967 106.784L42.467 106.642ZM42.4668 106.644L42.3033 107.791L43.627 107.979L43.7906 106.832L42.4668 106.644ZM42.3036 107.789C42.3038 107.787 42.3041 107.786 42.3043 107.785C42.3044 107.785 42.3045 107.785 42.3045 107.785C42.3045 107.785 42.3045 107.785 42.3046 107.785L43.4427 108.487C43.5352 108.337 43.5999 108.165 43.6267 107.982L42.3036 107.789ZM42.5468 108.719C42.855 108.892 43.1736 109.035 43.4876 109.155L43.9645 107.906C43.7005 107.805 43.4425 107.688 43.2004 107.553L42.5468 108.719ZM43.6942 109.198C43.8344 109.205 43.9781 109.209 44.1246 109.209V107.872C44.0029 107.872 43.8808 107.869 43.7578 107.863L43.6942 109.198ZM48.2717 105.711L48.1313 106.833L49.4581 106.999L49.5985 105.877L48.2717 105.711ZM49.2097 107.44C50.6703 106.284 51.6932 104.664 52.1095 102.849L50.8062 102.55C50.4578 104.069 49.6019 105.424 48.3797 106.392L49.2097 107.44ZM51.159 102.101L50.2421 102.559L50.8397 103.755L51.7567 103.297L51.159 102.101ZM49.9179 102.915C49.9188 102.912 49.9198 102.91 49.921 102.908L51.068 103.596C51.1054 103.533 51.1374 103.468 51.1638 103.4L49.9179 102.915ZM49.9212 102.908L48.4847 105.302L49.6312 105.99L51.0678 103.596L49.9212 102.908ZM48.4842 105.303C48.4864 105.299 48.4892 105.296 48.4924 105.293L49.3778 106.295C49.4777 106.207 49.5633 106.104 49.6317 105.989L48.4842 105.303ZM50.8673 103.391L51.8344 102.908L51.2367 101.712L50.2696 102.195L50.8673 103.391ZM52.1943 102.424C52.2736 101.966 52.3144 101.498 52.3144 101.019H50.9773C50.9773 101.421 50.943 101.814 50.8768 102.196L52.1943 102.424ZM52.3144 101.019C52.3144 99.2274 51.7382 97.5679 50.7607 96.219L49.678 97.0037C50.4956 98.1318 50.9773 99.5184 50.9773 101.019H52.3144ZM49.5549 96.5373C49.556 96.5276 49.5604 96.5185 49.5673 96.5116L50.5117 97.4582C50.72 97.2504 50.8512 96.9778 50.8838 96.6854L49.5549 96.5373ZM49.5667 96.5122L49.012 97.0668L49.9575 98.0123L50.5122 97.4576L49.5667 96.5122ZM49.0121 97.0668C49.0162 97.0627 49.0211 97.0595 49.0264 97.0574L49.5138 98.3025C49.6801 98.2374 49.8311 98.1387 49.9574 98.0124L49.0121 97.0668ZM49.0264 97.0574C49.0318 97.0553 49.0375 97.0543 49.0433 97.0546L48.9911 98.3906C49.1696 98.3976 49.3475 98.3676 49.5138 98.3025L49.0264 97.0574ZM48.3505 97.7727L48.5931 100.997L49.9264 100.897L49.6839 97.6725L48.3505 97.7727ZM48.8911 101.505C48.8868 101.502 48.8831 101.499 48.8801 101.494L49.9691 100.719C49.8768 100.589 49.7613 100.477 49.6285 100.39L48.8911 101.505ZM48.8806 101.495L49.9229 102.954L51.0109 102.177L49.9686 100.718L48.8806 101.495ZM49.9262 102.959C49.9192 102.949 49.9165 102.941 49.9154 102.936L51.2216 102.65C51.1853 102.485 51.115 102.32 51.0076 102.172L49.9262 102.959ZM40.1309 101.418L39.8701 104.547L41.2026 104.658L41.4634 101.529L40.1309 101.418ZM40.3044 105.229C40.3014 105.228 40.2984 105.226 40.2957 105.225L41.0378 104.112C40.9536 104.056 40.8632 104.01 40.7683 103.975L40.3044 105.229ZM40.296 105.225L42.4853 106.684L43.2268 105.571L41.0375 104.112L40.296 105.225ZM42.4843 106.683C42.4778 106.679 42.4727 106.673 42.4695 106.666L43.6889 106.117C43.5893 105.896 43.4296 105.707 43.2278 105.572L42.4843 106.683ZM43.3593 106.999L46.2988 105.642L45.7386 104.428L42.7991 105.784L43.3593 106.999ZM46.6726 104.896C46.6732 104.899 46.6735 104.901 46.6735 104.904L45.3364 104.903C45.3363 104.994 45.3458 105.085 45.3649 105.174L46.6726 104.896ZM46.6735 104.904V102.384H45.3364V104.904H46.6735ZM46.6735 102.383C46.6735 102.389 46.6722 102.395 46.6697 102.401L45.4543 101.843C45.3764 102.013 45.3362 102.198 45.3364 102.385L46.6735 102.383ZM46.3988 101.544L43.5758 99.8979L42.9022 101.053L45.7252 102.699L46.3988 101.544ZM42.8446 99.9355C42.8474 99.9335 42.8504 99.9318 42.8536 99.9305L43.3536 101.171C43.453 101.131 43.5469 101.078 43.6334 101.015L42.8446 99.9355ZM42.8555 99.9298L40.5615 100.847L41.0578 102.088L43.3518 101.171L42.8555 99.9298ZM40.5353 100.858L40.5227 100.864L41.0715 102.083L41.084 102.077L40.5353 100.858ZM43.1039 100.808L45.9263 102.454L46.6001 101.299L43.7777 99.6528L43.1039 100.808ZM46.6568 102.417C46.654 102.419 46.6509 102.421 46.6477 102.422L46.1507 101.181C46.0509 101.221 45.9565 101.273 45.8696 101.336L46.6568 102.417ZM46.6474 102.422L48.9301 101.51L48.4337 100.268L46.151 101.181L46.6474 102.422ZM48.9309 101.51C48.9252 101.512 48.9191 101.513 48.9129 101.513L48.9635 100.176C48.7822 100.17 48.6014 100.201 48.4329 100.269L48.9309 101.51ZM49.6049 100.794L49.3623 97.5697L48.029 97.67L48.2716 100.895L49.6049 100.794ZM49.0397 97.0465L46.6529 95.6144L45.9649 96.7609L48.3517 98.1931L49.0397 97.0465ZM46.6531 95.6145C46.6588 95.6179 46.6637 95.6227 46.6672 95.6285L45.527 96.3269C45.6359 96.5047 45.7861 96.6535 45.9648 96.7608L46.6531 95.6145ZM45.7981 95.3797L43.1757 96.6909L43.7737 97.8869L46.3961 96.5756L45.7981 95.3797ZM42.8302 97.4667C42.8298 97.4653 42.8293 97.4626 42.8293 97.4594H44.1664C44.1664 97.3383 44.1496 97.2215 44.1192 97.1111L42.8302 97.4667ZM42.8293 97.4594V99.9683H44.1664V97.4594H42.8293ZM42.8293 99.9691C42.8293 99.9631 42.8306 99.9571 42.8331 99.9517L44.0486 100.509C44.1264 100.339 44.1666 100.154 44.1664 99.9675L42.8293 99.9691Z" fill="white" mask="url(#path-7-outside-2_214_1454)"/>
</g>
<path d="M20.2092 81.4803C20.192 81.4806 20.1748 81.4806 20.1576 81.4803H18.824C18.4638 81.4803 18.1184 81.3372 17.8638 81.0825C17.6091 80.8279 17.466 80.4824 17.466 80.1223V40.7402C17.466 35.7862 19.5872 32.25 22.678 30.0418C25.6385 27.9234 29.2996 27.1602 32.404 27.1602H78.5761C81.6805 27.1602 85.339 27.9261 88.3021 30.0418C91.3902 32.25 93.5142 35.7862 93.5142 40.7402V80.1223C93.5142 80.4824 93.3711 80.8279 93.1164 81.0825C92.8617 81.3372 92.5163 81.4803 92.1562 81.4803H90.8226C90.8063 81.4805 90.79 81.4805 90.7737 81.4803H89.4401C89.08 81.4803 88.7346 81.3372 88.4799 81.0825C88.2252 80.8279 88.0821 80.4824 88.0821 80.1223V80.1087L74.1355 71.9743H36.8447L22.898 80.1114V80.1223C22.898 80.4824 22.7549 80.8279 22.5003 81.0825C22.2456 81.3372 21.9002 81.4803 21.54 81.4803H20.2092ZM22.898 40.7402V49.8062L35.12 42.6767V32.5922H32.404C30.0764 32.5922 27.6239 33.1843 25.834 34.4635C24.1745 35.6504 22.898 37.5462 22.898 40.7402ZM22.898 52.9513V63.3862L35.12 56.2567V45.8191L22.898 52.9513ZM22.898 66.5314V76.9663L35.12 69.8368V59.3991L22.898 66.5314ZM88.0821 76.9663V66.5287L75.8601 59.3991V69.8368L88.0821 76.9663ZM88.0821 63.3862V52.9486L75.8601 45.8191V56.2567L88.0821 63.3862ZM88.0821 49.8062V40.7402C88.0821 37.5462 86.8111 35.6504 85.1461 34.4635C83.3536 33.187 80.9037 32.5922 78.5761 32.5922H75.8601V42.6767L88.0821 49.8062ZM73.1441 32.5922H56.8481V42.0982H73.1441V32.5922ZM54.1321 32.5922H37.836V42.0982H54.1321V32.5922ZM73.1441 58.3942H56.8481V69.2582H73.1441V58.3942ZM73.1441 44.8142H56.8481V55.6782H73.1441V44.8142ZM54.1321 44.8142H37.836V55.6782H54.1321V44.8142ZM54.1321 58.3942H37.836V69.2582H54.1321V58.3942Z" fill="white"/>
<defs>
<clipPath id="clip0_214_1454">
<rect width="20.0567" height="20.0567" fill="white" transform="translate(69.5298 90.9912)"/>
</clipPath>
<clipPath id="clip1_214_1454">
<rect width="20.0567" height="20.0567" fill="white" transform="translate(34.0963 90.9912)"/>
</clipPath>
</defs>
</svg>
